<svg width="497" height="126" viewBox="0 0 497 126" fill="none" xmlns="http://www.w3.org/2000/svg">
<mask id="mask0_1_273" style="mask-type:luminance" maskUnits="userSpaceOnUse" x="0" y="12" width="130" height="114">
<path d="M129.333 12.2656H0V125.599H129.333V12.2656Z" fill="white"/>
</mask>
<g mask="url(#mask0_1_273)">
<mask id="mask1_1_273" style="mask-type:luminance" maskUnits="userSpaceOnUse" x="0" y="12" width="129" height="114">
<path d="M0 12.9062H128.557V125.229H0V12.9062Z" fill="white"/>
</mask>
<g mask="url(#mask1_1_273)">
<mask id="mask2_1_273" style="mask-type:luminance" maskUnits="userSpaceOnUse" x="0" y="12" width="129" height="114">
<path d="M64.1823 12.9062L128.37 125.229H0L64.1823 12.9062Z" fill="white"/>
</mask>
<g mask="url(#mask2_1_273)">
<path d="M0 12.9062H128.557V125.229H0V12.9062Z" fill="#FFDE59"/>
</g>
</g>
</g>
<mask id="mask3_1_273" style="mask-type:luminance" maskUnits="userSpaceOnUse" x="22" y="0" width="129" height="112">
<path d="M22.4583 0H150.458V112H22.4583V0Z" fill="white"/>
</mask>
<g mask="url(#mask3_1_273)">
<mask id="mask4_1_273" style="mask-type:luminance" maskUnits="userSpaceOnUse" x="22" y="0" width="129" height="113">
<path d="M86.6406 0L150.818 112.313H22.4583L86.6406 0Z" fill="white"/>
</mask>
<g mask="url(#mask4_1_273)">
<path d="M86.6406 0L150.818 112.312H22.4583L86.6406 0Z" stroke="white" stroke-width="16"/>
</g>
</g>
<path d="M278.194 99.4531C272.788 99.4531 268.048 98.349 263.965 96.1406C259.882 93.9219 256.694 90.8229 254.403 86.849C252.121 82.8646 250.986 78.2344 250.986 72.9531C250.986 69.1094 251.642 65.5573 252.965 62.3073C254.283 59.0469 256.137 56.2188 258.528 53.8281C260.929 51.4271 263.741 49.5677 266.965 48.2448C270.199 46.9271 273.72 46.2656 277.528 46.2656C281.694 46.2656 285.392 47.0052 288.632 48.474C291.866 49.9323 294.554 51.9844 296.694 54.6198C298.845 57.2604 300.366 60.3438 301.257 63.8698C302.158 67.401 302.304 71.224 301.694 75.349H261.673C261.616 78.349 262.278 80.974 263.653 83.224C265.038 85.4635 267.028 87.2031 269.611 88.4531C272.194 89.7031 275.241 90.3281 278.757 90.3281C281.59 90.3281 284.33 89.901 286.986 89.0365C289.637 88.1771 292.038 86.9063 294.194 85.224L298.507 93.224C296.882 94.5469 294.923 95.6719 292.632 96.599C290.34 97.5156 287.944 98.2135 285.444 98.7031C282.944 99.2031 280.528 99.4531 278.194 99.4531ZM262.34 67.1406H290.757C290.658 63.349 289.449 60.3802 287.132 58.224C284.824 56.0573 281.538 54.974 277.278 54.974C273.163 54.974 269.746 56.0573 267.028 58.224C264.304 60.3802 262.741 63.349 262.34 67.1406Z" fill="white"/>
<path d="M313.291 97.9323V47.7865H324.437V54.1615C326.53 51.3594 328.963 49.3438 331.728 48.1198C334.489 46.8854 337.359 46.2656 340.333 46.2656C344.926 46.2656 348.728 47.1771 351.728 48.9948C354.739 50.8177 356.978 53.1615 358.437 56.0365C359.905 58.9115 360.645 61.8698 360.645 64.9115V97.9323H349.52V68.349C349.52 64.7656 348.442 61.901 346.291 59.7448C344.15 57.5781 341.171 56.4948 337.353 56.4948C334.853 56.4948 332.629 57.0573 330.687 58.1823C328.739 59.2969 327.213 60.8385 326.103 62.8073C324.989 64.7813 324.437 67.0885 324.437 69.724V97.9323H313.291Z" fill="white"/>
<path d="M400.202 99.4531C395.311 99.4531 390.524 98.75 385.847 97.3489C381.165 95.9479 377.222 93.9271 374.014 91.2864L379.597 82.6406C381.274 84.0885 383.243 85.3385 385.493 86.3906C387.743 87.4323 390.129 88.2344 392.66 88.7864C395.186 89.3437 397.722 89.6198 400.264 89.6198C404.889 89.6198 408.623 88.7448 411.472 86.9948C414.332 85.2344 415.764 82.6614 415.764 79.2864C415.764 76.7604 414.79 74.6198 412.847 72.8698C410.899 71.1094 407.311 69.4844 402.077 67.9948L394.785 65.8698C388.103 63.9427 383.233 61.3906 380.181 58.2239C377.123 55.0469 375.597 51.0937 375.597 46.3698C375.597 43.2344 376.228 40.401 377.493 37.8698C378.754 35.3281 380.54 33.1302 382.847 31.2656C385.165 29.4062 387.894 27.9896 391.035 27.0156C394.17 26.0312 397.618 25.5364 401.368 25.5364C406.129 25.5364 410.556 26.2344 414.639 27.6198C418.722 29.0104 422.103 30.8698 424.785 33.2031L418.993 41.5989C417.545 40.2812 415.853 39.151 413.91 38.2031C411.962 37.2604 409.873 36.5364 407.639 36.0364C405.415 35.526 403.16 35.2656 400.868 35.2656C398.035 35.2656 395.524 35.6823 393.347 36.5156C391.165 37.3385 389.462 38.526 388.243 40.0781C387.035 41.6354 386.431 43.5312 386.431 45.7656C386.431 47.3802 386.832 48.7969 387.639 50.0156C388.457 51.2239 389.853 52.3281 391.827 53.3281C393.795 54.3281 396.524 55.3385 400.014 56.3489L407.702 58.6198C414.254 60.5521 419.056 63.0677 422.097 66.1614C425.139 69.2448 426.66 73.2552 426.66 78.1823C426.66 82.4062 425.618 86.1146 423.535 89.3073C421.452 92.4896 418.431 94.9739 414.472 96.7656C410.524 98.5573 405.769 99.4531 400.202 99.4531Z" fill="white"/>
<path d="M434.191 97.9323L457.191 61.5573L435.399 27.0156H448.983L465.337 53.2031L482.816 27.0156H495.983L473.087 61.8698L496.649 97.9323H483.024L464.879 70.0156L447.399 97.9323H434.191Z" fill="white"/>
<path fill-rule="evenodd" clip-rule="evenodd" d="M215.891 99.4531C210.25 99.4531 205.037 98.5886 200.245 96.8698C195.454 95.1511 191.256 92.6771 187.662 89.4531C184.063 86.2344 181.266 82.3594 179.266 77.8281C177.277 73.3021 176.287 68.2188 176.287 62.5781C176.287 56.9688 177.245 51.8906 179.162 47.349C181.089 42.8073 183.787 38.9115 187.245 35.6615C190.714 32.4011 194.787 29.8906 199.454 28.1406C204.131 26.3802 209.245 25.4948 214.787 25.4948C217.355 25.4948 219.954 25.6979 222.579 26.099C225.214 26.5052 227.808 27.1719 230.349 28.099C232.902 29.0313 235.334 30.2865 237.641 31.8698L232.662 40.7865C230.089 39.1771 227.313 37.9688 224.329 37.1615C221.339 36.3438 218.266 35.9323 215.099 35.9323C210.974 35.9323 207.235 36.5521 203.891 37.7865C200.542 39.0104 197.688 40.7813 195.329 43.099C192.964 45.4063 191.152 48.1979 189.891 51.474C188.625 54.7552 187.995 58.4323 187.995 62.5156C187.995 68.2656 189.209 73.1511 191.641 77.1615C194.068 81.1771 197.417 84.224 201.683 86.3073C205.959 88.3906 210.881 89.4323 216.454 89.4323C219.188 89.4323 221.652 89.1719 223.849 88.6406C226.042 88.1146 227.813 87.5156 229.162 86.849V69.724H218.651V60.2865H239.349V93.4323C237.485 94.6823 235.162 95.7656 232.37 96.6823C229.589 97.5886 226.724 98.2709 223.766 98.7448C220.818 99.2136 218.193 99.4531 215.891 99.4531Z" fill="white"/>
</svg>
